<svg width="32" height="32" viewBox="0 0 32 32" fill="none" xmlns="http://www.w3.org/2000/svg">
  <defs>
    <linearGradient id="faviconGradient" x1="0%" y1="0%" x2="100%" y2="100%">
      <stop offset="0%" style="stop-color:#667eea;stop-opacity:1" />
      <stop offset="100%" style="stop-color:#764ba2;stop-opacity:1" />
    </linearGradient>
  </defs>
  
  <!-- Background -->
  <rect width="32" height="32" rx="6" fill="url(#faviconGradient)"/>
  
  <!-- AI Symbol -->
  <g transform="translate(6, 6)">
    <!-- Brain/AI representation -->
    <path d="M10 2C12.5 2 14.5 4 14.5 6.5C14.5 7.5 14.2 8.4 13.7 9.1C15.1 9.8 16 11.2 16 12.8C16 15.1 14.1 17 11.8 17H8.2C5.9 17 4 15.1 4 12.8C4 11.2 4.9 9.8 6.3 9.1C5.8 8.4 5.5 7.5 5.5 6.5C5.5 4 7.5 2 10 2Z" 
          fill="white" opacity="0.9" transform="scale(0.8) translate(2, 1)"/>
    
    <!-- Neural nodes -->
    <circle cx="8" cy="6" r="1" fill="white"/>
    <circle cx="12" cy="6" r="1" fill="white"/>
    <circle cx="10" cy="10" r="1" fill="white"/>
    <circle cx="8" cy="14" r="1" fill="white"/>
    <circle cx="12" cy="14" r="1" fill="white"/>
    
    <!-- Connections -->
    <line x1="8" y1="6" x2="10" y2="10" stroke="white" stroke-width="1" opacity="0.8"/>
    <line x1="12" y1="6" x2="10" y2="10" stroke="white" stroke-width="1" opacity="0.8"/>
    <line x1="10" y1="10" x2="8" y2="14" stroke="white" stroke-width="1" opacity="0.8"/>
    <line x1="10" y1="10" x2="12" y2="14" stroke="white" stroke-width="1" opacity="0.8"/>
  </g>
</svg>