<svg width="32" height="32" viewBox="0 0 32 32" fill="none" xmlns="http://www.w3.org/2000/svg">
  <defs>
    <linearGradient id="logoGradient" x1="0%" y1="0%" x2="100%" y2="100%">
      <stop offset="0%" style="stop-color:#667eea;stop-opacity:1" />
      <stop offset="100%" style="stop-color:#764ba2;stop-opacity:1" />
    </linearGradient>
  </defs>
  
  <!-- Background Circle -->
  <circle cx="16" cy="16" r="15" fill="url(#logoGradient)" stroke="white" stroke-width="2"/>
  
  <!-- AI Brain Icon -->
  <g transform="translate(8, 8)">
    <!-- Brain outline -->
    <path d="M8 2C10.5 2 12.5 4 12.5 6.5C12.5 7.5 12.2 8.4 11.7 9.1C13.1 9.8 14 11.2 14 12.8C14 15.1 12.1 17 9.8 17H6.2C3.9 17 2 15.1 2 12.8C2 11.2 2.9 9.8 4.3 9.1C3.8 8.4 3.5 7.5 3.5 6.5C3.5 4 5.5 2 8 2Z" 
          fill="white" opacity="0.9"/>
    
    <!-- Neural connections -->
    <circle cx="6" cy="7" r="0.8" fill="white"/>
    <circle cx="10" cy="7" r="0.8" fill="white"/>
    <circle cx="8" cy="10" r="0.8" fill="white"/>
    <circle cx="6" cy="13" r="0.8" fill="white"/>
    <circle cx="10" cy="13" r="0.8" fill="white"/>
    
    <!-- Connection lines -->
    <line x1="6" y1="7" x2="8" y2="10" stroke="white" stroke-width="0.5" opacity="0.7"/>
    <line x1="10" y1="7" x2="8" y2="10" stroke="white" stroke-width="0.5" opacity="0.7"/>
    <line x1="8" y1="10" x2="6" y2="13" stroke="white" stroke-width="0.5" opacity="0.7"/>
    <line x1="8" y1="10" x2="10" y2="13" stroke="white" stroke-width="0.5" opacity="0.7"/>
  </g>
</svg>